<mxfile host="app.diagrams.net" modified="2024-03-14T03:33:16.648Z" agent="Mozilla/5.0 (Windows NT 10.0; Win64; x64) AppleWebKit/537.36 (KHTML, like Gecko) Chrome/122.0.0.0 Safari/537.36" etag="eJVd5yrhB5kaOljc3921" version="24.0.6" type="github">
  <diagram id="C5RBs43oDa-KdzZeNtuy" name="Page-1">
    <mxGraphModel dx="1332" dy="500" grid="1" gridSize="10" guides="1" tooltips="1" connect="1" arrows="1" fold="1" page="1" pageScale="1" pageWidth="827" pageHeight="1169" math="0" shadow="0">
      <root>
        <mxCell id="WIyWlLk6GJQsqaUBKTNV-0" />
        <mxCell id="WIyWlLk6GJQsqaUBKTNV-1" parent="WIyWlLk6GJQsqaUBKTNV-0" />
        <mxCell id="zkfFHV4jXpPFQw0GAbJ--0" value="Vehicle" style="swimlane;fontStyle=2;align=center;verticalAlign=middle;childLayout=stackLayout;horizontal=1;startSize=26;horizontalStack=0;resizeParent=1;resizeLast=0;collapsible=1;marginBottom=0;rounded=0;shadow=0;strokeWidth=1;fontSize=21;" parent="WIyWlLk6GJQsqaUBKTNV-1" vertex="1">
          <mxGeometry x="299" y="190" width="230" height="200" as="geometry">
            <mxRectangle x="230" y="140" width="160" height="26" as="alternateBounds" />
          </mxGeometry>
        </mxCell>
        <mxCell id="zkfFHV4jXpPFQw0GAbJ--3" value="chasis: str&#xa;model: str&#xa;year: int &#xa;engine: Engine&#xa;&#xa;" style="text;align=left;verticalAlign=top;spacingLeft=4;spacingRight=4;overflow=hidden;rotatable=0;points=[[0,0.5],[1,0.5]];portConstraint=eastwest;rounded=0;shadow=0;html=0;fontSize=18;" parent="zkfFHV4jXpPFQw0GAbJ--0" vertex="1">
          <mxGeometry y="26" width="230" height="114" as="geometry" />
        </mxCell>
        <mxCell id="zkfFHV4jXpPFQw0GAbJ--4" value="" style="line;html=1;strokeWidth=1;align=left;verticalAlign=middle;spacingTop=-1;spacingLeft=3;spacingRight=3;rotatable=0;labelPosition=right;points=[];portConstraint=eastwest;" parent="zkfFHV4jXpPFQw0GAbJ--0" vertex="1">
          <mxGeometry y="140" width="230" height="8" as="geometry" />
        </mxCell>
        <mxCell id="zkfFHV4jXpPFQw0GAbJ--5" value="calculate_consumption():" style="text;align=left;verticalAlign=top;spacingLeft=4;spacingRight=4;overflow=hidden;rotatable=0;points=[[0,0.5],[1,0.5]];portConstraint=eastwest;fontSize=19;" parent="zkfFHV4jXpPFQw0GAbJ--0" vertex="1">
          <mxGeometry y="148" width="230" height="26" as="geometry" />
        </mxCell>
        <mxCell id="W211HIJI23N94YB3LOgb-0" value="Motorcycle" style="swimlane;fontStyle=2;align=center;verticalAlign=middle;childLayout=stackLayout;horizontal=1;startSize=26;horizontalStack=0;resizeParent=1;resizeLast=0;collapsible=1;marginBottom=0;rounded=0;shadow=0;strokeWidth=1;fontSize=21;" vertex="1" parent="WIyWlLk6GJQsqaUBKTNV-1">
          <mxGeometry x="10" y="480" width="230" height="130" as="geometry">
            <mxRectangle x="230" y="140" width="160" height="26" as="alternateBounds" />
          </mxGeometry>
        </mxCell>
        <mxCell id="W211HIJI23N94YB3LOgb-2" value="" style="line;html=1;strokeWidth=1;align=left;verticalAlign=middle;spacingTop=-1;spacingLeft=3;spacingRight=3;rotatable=0;labelPosition=right;points=[];portConstraint=eastwest;" vertex="1" parent="W211HIJI23N94YB3LOgb-0">
          <mxGeometry y="26" width="230" height="8" as="geometry" />
        </mxCell>
        <mxCell id="W211HIJI23N94YB3LOgb-27" value="&lt;font style=&quot;font-size: 18px;&quot;&gt;&amp;nbsp;handling: str&lt;/font&gt;" style="text;html=1;align=left;verticalAlign=middle;resizable=0;points=[];autosize=1;strokeColor=none;fillColor=none;" vertex="1" parent="W211HIJI23N94YB3LOgb-0">
          <mxGeometry y="34" width="230" height="40" as="geometry" />
        </mxCell>
        <mxCell id="W211HIJI23N94YB3LOgb-32" value="" style="whiteSpace=wrap;html=1;" vertex="1" parent="W211HIJI23N94YB3LOgb-0">
          <mxGeometry y="74" width="230" height="54" as="geometry" />
        </mxCell>
        <mxCell id="W211HIJI23N94YB3LOgb-4" value="Car" style="swimlane;fontStyle=2;align=center;verticalAlign=middle;childLayout=stackLayout;horizontal=1;startSize=26;horizontalStack=0;resizeParent=1;resizeLast=0;collapsible=1;marginBottom=0;rounded=0;shadow=0;strokeWidth=1;fontSize=21;" vertex="1" parent="WIyWlLk6GJQsqaUBKTNV-1">
          <mxGeometry x="10" y="30" width="230" height="120" as="geometry">
            <mxRectangle x="230" y="140" width="160" height="26" as="alternateBounds" />
          </mxGeometry>
        </mxCell>
        <mxCell id="W211HIJI23N94YB3LOgb-6" value="" style="line;html=1;strokeWidth=1;align=left;verticalAlign=middle;spacingTop=-1;spacingLeft=3;spacingRight=3;rotatable=0;labelPosition=right;points=[];portConstraint=eastwest;" vertex="1" parent="W211HIJI23N94YB3LOgb-4">
          <mxGeometry y="26" width="230" height="8" as="geometry" />
        </mxCell>
        <mxCell id="W211HIJI23N94YB3LOgb-26" value="&lt;font style=&quot;font-size: 18px;&quot;&gt;&amp;nbsp;num_doors: int&lt;/font&gt;" style="text;html=1;align=left;verticalAlign=middle;resizable=0;points=[];autosize=1;strokeColor=none;fillColor=none;" vertex="1" parent="W211HIJI23N94YB3LOgb-4">
          <mxGeometry y="34" width="230" height="40" as="geometry" />
        </mxCell>
        <mxCell id="W211HIJI23N94YB3LOgb-8" value="Truck" style="swimlane;fontStyle=2;align=center;verticalAlign=middle;childLayout=stackLayout;horizontal=1;startSize=26;horizontalStack=0;resizeParent=1;resizeLast=0;collapsible=1;marginBottom=0;rounded=0;shadow=0;strokeWidth=1;fontSize=21;" vertex="1" parent="WIyWlLk6GJQsqaUBKTNV-1">
          <mxGeometry x="299" y="490" width="230" height="140" as="geometry">
            <mxRectangle x="230" y="140" width="160" height="26" as="alternateBounds" />
          </mxGeometry>
        </mxCell>
        <mxCell id="W211HIJI23N94YB3LOgb-10" value="" style="line;html=1;strokeWidth=1;align=left;verticalAlign=middle;spacingTop=-1;spacingLeft=3;spacingRight=3;rotatable=0;labelPosition=right;points=[];portConstraint=eastwest;" vertex="1" parent="W211HIJI23N94YB3LOgb-8">
          <mxGeometry y="26" width="230" height="8" as="geometry" />
        </mxCell>
        <mxCell id="W211HIJI23N94YB3LOgb-28" value="&lt;font style=&quot;font-size: 18px;&quot;&gt;&amp;nbsp;num_wheels: int&lt;/font&gt;" style="text;html=1;align=left;verticalAlign=middle;resizable=0;points=[];autosize=1;strokeColor=none;fillColor=none;" vertex="1" parent="W211HIJI23N94YB3LOgb-8">
          <mxGeometry y="34" width="230" height="40" as="geometry" />
        </mxCell>
        <mxCell id="W211HIJI23N94YB3LOgb-12" value="Yacht" style="swimlane;fontStyle=2;align=center;verticalAlign=middle;childLayout=stackLayout;horizontal=1;startSize=26;horizontalStack=0;resizeParent=1;resizeLast=0;collapsible=1;marginBottom=0;rounded=0;shadow=0;strokeWidth=1;fontSize=21;" vertex="1" parent="WIyWlLk6GJQsqaUBKTNV-1">
          <mxGeometry x="590" y="485" width="230" height="135" as="geometry">
            <mxRectangle x="230" y="140" width="160" height="26" as="alternateBounds" />
          </mxGeometry>
        </mxCell>
        <mxCell id="W211HIJI23N94YB3LOgb-14" value="" style="line;html=1;strokeWidth=1;align=left;verticalAlign=middle;spacingTop=-1;spacingLeft=3;spacingRight=3;rotatable=0;labelPosition=right;points=[];portConstraint=eastwest;" vertex="1" parent="W211HIJI23N94YB3LOgb-12">
          <mxGeometry y="26" width="230" height="8" as="geometry" />
        </mxCell>
        <mxCell id="W211HIJI23N94YB3LOgb-29" value="&lt;font style=&quot;font-size: 18px;&quot;&gt;&amp;nbsp;size: int&lt;/font&gt;" style="text;html=1;align=left;verticalAlign=middle;resizable=0;points=[];autosize=1;strokeColor=none;fillColor=none;" vertex="1" parent="W211HIJI23N94YB3LOgb-12">
          <mxGeometry y="34" width="230" height="40" as="geometry" />
        </mxCell>
        <mxCell id="W211HIJI23N94YB3LOgb-34" value="" style="whiteSpace=wrap;html=1;" vertex="1" parent="W211HIJI23N94YB3LOgb-12">
          <mxGeometry y="74" width="230" height="60" as="geometry" />
        </mxCell>
        <mxCell id="W211HIJI23N94YB3LOgb-16" value="Engine" style="swimlane;fontStyle=2;align=center;verticalAlign=middle;childLayout=stackLayout;horizontal=1;startSize=26;horizontalStack=0;resizeParent=1;resizeLast=0;collapsible=1;marginBottom=0;rounded=0;shadow=0;strokeWidth=1;fontSize=21;" vertex="1" parent="WIyWlLk6GJQsqaUBKTNV-1">
          <mxGeometry x="590" y="40" width="230" height="200" as="geometry">
            <mxRectangle x="230" y="140" width="160" height="26" as="alternateBounds" />
          </mxGeometry>
        </mxCell>
        <mxCell id="W211HIJI23N94YB3LOgb-17" value="chasis: str&#xa;model: str&#xa;year: int &#xa;engine: Engine&#xa;&#xa;" style="text;align=left;verticalAlign=top;spacingLeft=4;spacingRight=4;overflow=hidden;rotatable=0;points=[[0,0.5],[1,0.5]];portConstraint=eastwest;rounded=0;shadow=0;html=0;fontSize=18;" vertex="1" parent="W211HIJI23N94YB3LOgb-16">
          <mxGeometry y="26" width="230" height="114" as="geometry" />
        </mxCell>
        <mxCell id="W211HIJI23N94YB3LOgb-18" value="" style="line;html=1;strokeWidth=1;align=left;verticalAlign=middle;spacingTop=-1;spacingLeft=3;spacingRight=3;rotatable=0;labelPosition=right;points=[];portConstraint=eastwest;" vertex="1" parent="W211HIJI23N94YB3LOgb-16">
          <mxGeometry y="140" width="230" height="8" as="geometry" />
        </mxCell>
        <mxCell id="W211HIJI23N94YB3LOgb-20" value="1" style="endArrow=open;html=1;endSize=12;startArrow=diamondThin;startSize=14;startFill=0;edgeStyle=orthogonalEdgeStyle;align=left;verticalAlign=bottom;rounded=0;exitX=0;exitY=0.5;exitDx=0;exitDy=0;strokeWidth=1;jumpSize=12;" edge="1" parent="WIyWlLk6GJQsqaUBKTNV-1" source="W211HIJI23N94YB3LOgb-17" target="zkfFHV4jXpPFQw0GAbJ--0">
          <mxGeometry x="-1" y="3" relative="1" as="geometry">
            <mxPoint x="330" y="280" as="sourcePoint" />
            <mxPoint x="490" y="280" as="targetPoint" />
          </mxGeometry>
        </mxCell>
        <mxCell id="W211HIJI23N94YB3LOgb-21" value="Extends" style="endArrow=block;endSize=16;endFill=0;html=1;rounded=0;exitX=0.439;exitY=-0.015;exitDx=0;exitDy=0;exitPerimeter=0;" edge="1" parent="WIyWlLk6GJQsqaUBKTNV-1" source="W211HIJI23N94YB3LOgb-0" target="zkfFHV4jXpPFQw0GAbJ--0">
          <mxGeometry x="1" y="-92" width="160" relative="1" as="geometry">
            <mxPoint x="20" y="320" as="sourcePoint" />
            <mxPoint x="180" y="320" as="targetPoint" />
            <mxPoint x="20" y="-2" as="offset" />
          </mxGeometry>
        </mxCell>
        <mxCell id="W211HIJI23N94YB3LOgb-22" value="Extends" style="endArrow=block;endSize=16;endFill=0;html=1;rounded=0;exitX=0.883;exitY=-0.044;exitDx=0;exitDy=0;exitPerimeter=0;entryX=0.33;entryY=-0.025;entryDx=0;entryDy=0;entryPerimeter=0;" edge="1" parent="WIyWlLk6GJQsqaUBKTNV-1" target="zkfFHV4jXpPFQw0GAbJ--0">
          <mxGeometry width="160" relative="1" as="geometry">
            <mxPoint x="213.08999999999992" y="50.98400000000004" as="sourcePoint" />
            <mxPoint x="400" y="110" as="targetPoint" />
          </mxGeometry>
        </mxCell>
        <mxCell id="W211HIJI23N94YB3LOgb-23" value="Extends" style="endArrow=block;endSize=16;endFill=0;html=1;rounded=0;exitX=0.5;exitY=0;exitDx=0;exitDy=0;" edge="1" parent="WIyWlLk6GJQsqaUBKTNV-1" source="W211HIJI23N94YB3LOgb-12" target="zkfFHV4jXpPFQw0GAbJ--0">
          <mxGeometry width="160" relative="1" as="geometry">
            <mxPoint x="600" y="380" as="sourcePoint" />
            <mxPoint x="760" y="380" as="targetPoint" />
          </mxGeometry>
        </mxCell>
        <mxCell id="W211HIJI23N94YB3LOgb-25" value="Extends" style="endArrow=block;endSize=16;endFill=0;html=1;rounded=0;exitX=0.57;exitY=0.05;exitDx=0;exitDy=0;exitPerimeter=0;" edge="1" parent="WIyWlLk6GJQsqaUBKTNV-1" source="W211HIJI23N94YB3LOgb-8" target="zkfFHV4jXpPFQw0GAbJ--0">
          <mxGeometry width="160" relative="1" as="geometry">
            <mxPoint x="270" y="440" as="sourcePoint" />
            <mxPoint x="430" y="440" as="targetPoint" />
          </mxGeometry>
        </mxCell>
        <mxCell id="W211HIJI23N94YB3LOgb-31" value="" style="whiteSpace=wrap;html=1;" vertex="1" parent="WIyWlLk6GJQsqaUBKTNV-1">
          <mxGeometry x="10" y="110" width="230" height="40" as="geometry" />
        </mxCell>
        <mxCell id="W211HIJI23N94YB3LOgb-33" value="" style="whiteSpace=wrap;html=1;" vertex="1" parent="WIyWlLk6GJQsqaUBKTNV-1">
          <mxGeometry x="300" y="570" width="230" height="60" as="geometry" />
        </mxCell>
      </root>
    </mxGraphModel>
  </diagram>
</mxfile>
